<svg width="113" height="147" viewBox="0 0 113 147" fill="none" xmlns="http://www.w3.org/2000/svg">
<g filter="url(#filter0_dd_86_17)">
<path fill-rule="evenodd" clip-rule="evenodd" d="M27 19C23.134 19 20 22.134 20 26V119C20 123.418 23.5817 127 28 127H59.6684L92 99V27C92 22.5817 88.4183 19 84 19H27Z" fill="#EBE0D1"/>
</g>
<path d="M28 37.5C28 36.3954 28 35 28 35H84C84 35 84 35.8954 84 37C84 38.1046 84 39 84 39H28C28 39 28 38.6046 28 37.5Z" fill="black" fill-opacity="0.5"/>
<path d="M28 60.5C28 59.3954 28 58 28 58H84C84 58 84 58.8954 84 60C84 61.1046 84 62 84 62H28C28 62 28 61.6046 28 60.5Z" fill="black" fill-opacity="0.5"/>
<path d="M28 48.5C28 47.3954 28 46 28 46H84C84 46 84 46.8954 84 48C84 49.1046 84 50 84 50H28C28 50 28 49.6046 28 48.5Z" fill="black" fill-opacity="0.5"/>
<g filter="url(#filter1_d_86_17)">
<path fill-rule="evenodd" clip-rule="evenodd" d="M91.968 98H65.4403C61.8996 98 59.0293 100.96 59.0293 104.611V127H59.6364L91.968 99V98Z" fill="#DED3C5"/>
</g>
<defs>
<filter id="filter0_dd_86_17" x="0.11758" y="0.337361" width="112.375" height="145.935" filterUnits="userSpaceOnUse" color-interpolation-filters="sRGB">
<feFlood flood-opacity="0" result="BackgroundImageFix"/>
<feColorMatrix in="SourceAlpha" type="matrix" values="0 0 0 0 0 0 0 0 0 0 0 0 0 0 0 0 0 0 127 0" result="hardAlpha"/>
<feOffset dx="-7.31868" dy="-6.0989"/>
<feGaussianBlur stdDeviation="6.28187"/>
<feComposite in2="hardAlpha" operator="out"/>
<feColorMatrix type="matrix" values="0 0 0 0 1 0 0 0 0 1 0 0 0 0 1 0 0 0 0.4 0"/>
<feBlend mode="normal" in2="BackgroundImageFix" result="effect1_dropShadow_86_17"/>
<feColorMatrix in="SourceAlpha" type="matrix" values="0 0 0 0 0 0 0 0 0 0 0 0 0 0 0 0 0 0 127 0" result="hardAlpha"/>
<feOffset dx="9.75824" dy="8.53846"/>
<feGaussianBlur stdDeviation="5.36703"/>
<feComposite in2="hardAlpha" operator="out"/>
<feColorMatrix type="matrix" values="0 0 0 0 0 0 0 0 0 0 0 0 0 0 0 0 0 0 0.2 0"/>
<feBlend mode="normal" in2="effect1_dropShadow_86_17" result="effect2_dropShadow_86_17"/>
<feBlend mode="normal" in="SourceGraphic" in2="effect2_dropShadow_86_17" result="shape"/>
</filter>
<filter id="filter1_d_86_17" x="36.8106" y="77.0011" width="62.7387" height="58.8" filterUnits="userSpaceOnUse" color-interpolation-filters="sRGB">
<feFlood flood-opacity="0" result="BackgroundImageFix"/>
<feColorMatrix in="SourceAlpha" type="matrix" values="0 0 0 0 0 0 0 0 0 0 0 0 0 0 0 0 0 0 127 0" result="hardAlpha"/>
<feOffset dx="-7.31868" dy="-6.0989"/>
<feGaussianBlur stdDeviation="7.45"/>
<feComposite in2="hardAlpha" operator="out"/>
<feColorMatrix type="matrix" values="0 0 0 0 1 0 0 0 0 1 0 0 0 0 1 0 0 0 0.4 0"/>
<feBlend mode="normal" in2="BackgroundImageFix" result="effect1_dropShadow_86_17"/>
<feBlend mode="normal" in="SourceGraphic" in2="effect1_dropShadow_86_17" result="shape"/>
</filter>
</defs>
</svg>
