<svg width="113" height="151" viewBox="0 0 113 151" fill="none" xmlns="http://www.w3.org/2000/svg">
<g filter="url(#filter0_dd_91_144)">
<rect x="20" y="19" width="72" height="108" rx="7" fill="#EAE0D3"/>
</g>
<path d="M28 37.5C28 36.3954 28 35 28 35H84C84 35 84 35.8954 84 37C84 38.1046 84 39 84 39H28C28 39 28 38.6046 28 37.5Z" fill="black" fill-opacity="0.5"/>
<path d="M28 61.5C28 60.3954 28 59 28 59H84C84 59 84 59.8954 84 61C84 62.1046 84 63 84 63H28C28 63 28 62.6046 28 61.5Z" fill="black" fill-opacity="0.5"/>
<path d="M28 49.5C28 48.3954 28 47 28 47H84C84 47 84 47.8954 84 49C84 50.1046 84 51 84 51H28C28 51 28 50.6046 28 49.5Z" fill="black" fill-opacity="0.5"/>
<g filter="url(#filter1_dd_91_144)">
<circle cx="64.5" cy="99.5" r="24.5" fill="#E9E0D4"/>
</g>
<path d="M61.9559 106.836L70.4919 98.3004L68.6362 96.4585L61.9887 103.106L58.5165 99.634L56.6626 101.509L61.9559 106.836ZM56.3085 111.744C53.9988 111.744 52.0248 110.939 50.3866 109.329C48.7484 107.72 47.9293 105.76 47.9293 103.449C47.9293 101.452 48.5328 99.6728 49.7398 98.1104C50.9469 96.548 52.521 95.587 54.4623 95.2273C55.0532 92.8643 56.2824 90.9468 58.1501 89.4749C60.0179 88.0027 62.1521 87.2666 64.5525 87.2666C67.3722 87.2666 69.7738 88.264 71.7574 90.2587C73.741 92.2533 74.7945 94.671 74.918 97.5121V98.0955C76.685 98.2607 78.1522 98.9847 79.3196 100.267C80.487 101.55 81.0707 103.101 81.0707 104.919C81.0707 106.805 80.4048 108.414 79.0731 109.746C77.7414 111.078 76.1325 111.744 74.2464 111.744H56.3085ZM56.3085 108.53H74.1983C75.197 108.53 76.0564 108.171 76.7766 107.455C77.4968 106.738 77.8569 105.877 77.8569 104.871C77.8569 103.866 77.4968 103.005 76.7766 102.288C76.0564 101.571 75.197 101.213 74.1983 101.213H71.7319V97.9449C71.7319 95.8651 71.0269 94.1033 69.6169 92.6595C68.207 91.216 66.4872 90.4943 64.4577 90.4943C62.401 90.4943 60.6682 91.2461 59.2595 92.7499C57.8507 94.254 57.1464 96.0703 57.1464 98.199H56.2356C54.8184 98.199 53.6152 98.6973 52.6262 99.6938C51.6375 100.69 51.1431 101.913 51.1431 103.362C51.1431 104.795 51.6456 106.014 52.6507 107.02C53.6557 108.027 54.875 108.53 56.3085 108.53Z" fill="black" fill-opacity="0.5"/>
<defs>
<filter id="filter0_dd_91_144" x="0.11758" y="0.337361" width="112.182" height="149.963" filterUnits="userSpaceOnUse" color-interpolation-filters="sRGB">
<feFlood flood-opacity="0" result="BackgroundImageFix"/>
<feColorMatrix in="SourceAlpha" type="matrix" values="0 0 0 0 0 0 0 0 0 0 0 0 0 0 0 0 0 0 127 0" result="hardAlpha"/>
<feOffset dx="-7.31868" dy="-6.0989"/>
<feGaussianBlur stdDeviation="6.28187"/>
<feComposite in2="hardAlpha" operator="out"/>
<feColorMatrix type="matrix" values="0 0 0 0 1 0 0 0 0 1 0 0 0 0 1 0 0 0 0.4 0"/>
<feBlend mode="normal" in2="BackgroundImageFix" result="effect1_dropShadow_91_144"/>
<feColorMatrix in="SourceAlpha" type="matrix" values="0 0 0 0 0 0 0 0 0 0 0 0 0 0 0 0 0 0 127 0" result="hardAlpha"/>
<feOffset dx="6" dy="9"/>
<feGaussianBlur stdDeviation="7.15"/>
<feComposite in2="hardAlpha" operator="out"/>
<feColorMatrix type="matrix" values="0 0 0 0 0 0 0 0 0 0 0 0 0 0 0 0 0 0 0.2 0"/>
<feBlend mode="normal" in2="effect1_dropShadow_91_144" result="effect2_dropShadow_91_144"/>
<feBlend mode="normal" in="SourceGraphic" in2="effect2_dropShadow_91_144" result="shape"/>
</filter>
<filter id="filter1_dd_91_144" x="20.1176" y="56.3374" width="89.1824" height="90.9626" filterUnits="userSpaceOnUse" color-interpolation-filters="sRGB">
<feFlood flood-opacity="0" result="BackgroundImageFix"/>
<feColorMatrix in="SourceAlpha" type="matrix" values="0 0 0 0 0 0 0 0 0 0 0 0 0 0 0 0 0 0 127 0" result="hardAlpha"/>
<feOffset dx="-7.31868" dy="-6.0989"/>
<feGaussianBlur stdDeviation="6.28187"/>
<feComposite in2="hardAlpha" operator="out"/>
<feColorMatrix type="matrix" values="0 0 0 0 1 0 0 0 0 1 0 0 0 0 1 0 0 0 0.4 0"/>
<feBlend mode="normal" in2="BackgroundImageFix" result="effect1_dropShadow_91_144"/>
<feColorMatrix in="SourceAlpha" type="matrix" values="0 0 0 0 0 0 0 0 0 0 0 0 0 0 0 0 0 0 127 0" result="hardAlpha"/>
<feOffset dx="6" dy="9"/>
<feGaussianBlur stdDeviation="7.15"/>
<feComposite in2="hardAlpha" operator="out"/>
<feColorMatrix type="matrix" values="0 0 0 0 0 0 0 0 0 0 0 0 0 0 0 0 0 0 0.2 0"/>
<feBlend mode="normal" in2="effect1_dropShadow_91_144" result="effect2_dropShadow_91_144"/>
<feBlend mode="normal" in="SourceGraphic" in2="effect2_dropShadow_91_144" result="shape"/>
</filter>
</defs>
</svg>
