<svg width="113" height="151" viewBox="0 0 113 151" fill="none" xmlns="http://www.w3.org/2000/svg">
<g filter="url(#filter0_dd_88_82)">
<rect x="20" y="19" width="72" height="108" rx="7" fill="#EAE0D3"/>
</g>
<path d="M28 37.5C28 36.3954 28 35 28 35H84C84 35 84 35.8954 84 37C84 38.1046 84 39 84 39H28C28 39 28 38.6046 28 37.5Z" fill="black" fill-opacity="0.5"/>
<path d="M28 61.5C28 60.3954 28 59 28 59H84C84 59 84 59.8954 84 61C84 62.1046 84 63 84 63H28C28 63 28 62.6046 28 61.5Z" fill="black" fill-opacity="0.5"/>
<path d="M28 49.5C28 48.3954 28 47 28 47H84C84 47 84 47.8954 84 49C84 50.1046 84 51 84 51H28C28 51 28 50.6046 28 49.5Z" fill="black" fill-opacity="0.5"/>
<g filter="url(#filter1_dd_88_82)">
<circle cx="64.5" cy="99.5" r="24.5" fill="#E9E0D4"/>
</g>
<path d="M61.8546 107.345L73.9229 95.2771L71.3413 92.6996L61.8546 102.187L57.1733 97.5054L54.6196 100.083L61.8546 107.345ZM64.3283 116.668C61.9353 116.668 59.6857 116.215 57.5796 115.31C55.4735 114.405 53.6363 113.168 52.0679 111.6C50.4996 110.032 49.2629 108.195 48.3579 106.09C47.4526 103.986 47 101.737 47 99.3438C47 96.9321 47.4526 94.6732 48.3579 92.5671C49.2629 90.461 50.4988 88.6282 52.0654 87.0688C53.6321 85.509 55.4682 84.2743 57.5738 83.3646C59.679 82.4549 61.9288 82 64.3229 82C66.7354 82 68.9953 82.4544 71.1025 83.3633C73.21 84.2722 75.0431 85.5058 76.6017 87.0642C78.1606 88.6225 79.3947 90.4549 80.3042 92.5613C81.2133 94.6676 81.6679 96.9278 81.6679 99.3417C81.6679 101.736 81.2131 103.987 80.3033 106.092C79.3936 108.198 78.1589 110.035 76.5992 111.602C75.0397 113.169 73.2076 114.405 71.1029 115.31C68.9982 116.215 66.74 116.668 64.3283 116.668ZM64.3263 112.995C68.1338 112.995 71.3613 111.67 74.0088 109.02C76.656 106.37 77.9796 103.144 77.9796 99.3417C77.9796 95.5342 76.656 92.3067 74.0088 89.6592C71.3613 87.0119 68.1311 85.6883 64.3183 85.6883C60.5242 85.6883 57.3014 87.0119 54.65 89.6592C51.9986 92.3067 50.6729 95.5368 50.6729 99.3496C50.6729 103.144 51.9979 106.367 54.6479 109.018C57.2979 111.669 60.524 112.995 64.3263 112.995Z" fill="#4B6546"/>
<defs>
<filter id="filter0_dd_88_82" x="0.11758" y="0.337361" width="112.182" height="149.963" filterUnits="userSpaceOnUse" color-interpolation-filters="sRGB">
<feFlood flood-opacity="0" result="BackgroundImageFix"/>
<feColorMatrix in="SourceAlpha" type="matrix" values="0 0 0 0 0 0 0 0 0 0 0 0 0 0 0 0 0 0 127 0" result="hardAlpha"/>
<feOffset dx="-7.31868" dy="-6.0989"/>
<feGaussianBlur stdDeviation="6.28187"/>
<feComposite in2="hardAlpha" operator="out"/>
<feColorMatrix type="matrix" values="0 0 0 0 1 0 0 0 0 1 0 0 0 0 1 0 0 0 0.4 0"/>
<feBlend mode="normal" in2="BackgroundImageFix" result="effect1_dropShadow_88_82"/>
<feColorMatrix in="SourceAlpha" type="matrix" values="0 0 0 0 0 0 0 0 0 0 0 0 0 0 0 0 0 0 127 0" result="hardAlpha"/>
<feOffset dx="6" dy="9"/>
<feGaussianBlur stdDeviation="7.15"/>
<feComposite in2="hardAlpha" operator="out"/>
<feColorMatrix type="matrix" values="0 0 0 0 0 0 0 0 0 0 0 0 0 0 0 0 0 0 0.2 0"/>
<feBlend mode="normal" in2="effect1_dropShadow_88_82" result="effect2_dropShadow_88_82"/>
<feBlend mode="normal" in="SourceGraphic" in2="effect2_dropShadow_88_82" result="shape"/>
</filter>
<filter id="filter1_dd_88_82" x="20.1176" y="56.3374" width="89.1824" height="90.9626" filterUnits="userSpaceOnUse" color-interpolation-filters="sRGB">
<feFlood flood-opacity="0" result="BackgroundImageFix"/>
<feColorMatrix in="SourceAlpha" type="matrix" values="0 0 0 0 0 0 0 0 0 0 0 0 0 0 0 0 0 0 127 0" result="hardAlpha"/>
<feOffset dx="-7.31868" dy="-6.0989"/>
<feGaussianBlur stdDeviation="6.28187"/>
<feComposite in2="hardAlpha" operator="out"/>
<feColorMatrix type="matrix" values="0 0 0 0 1 0 0 0 0 1 0 0 0 0 1 0 0 0 0.4 0"/>
<feBlend mode="normal" in2="BackgroundImageFix" result="effect1_dropShadow_88_82"/>
<feColorMatrix in="SourceAlpha" type="matrix" values="0 0 0 0 0 0 0 0 0 0 0 0 0 0 0 0 0 0 127 0" result="hardAlpha"/>
<feOffset dx="6" dy="9"/>
<feGaussianBlur stdDeviation="7.15"/>
<feComposite in2="hardAlpha" operator="out"/>
<feColorMatrix type="matrix" values="0 0 0 0 0 0 0 0 0 0 0 0 0 0 0 0 0 0 0.2 0"/>
<feBlend mode="normal" in2="effect1_dropShadow_88_82" result="effect2_dropShadow_88_82"/>
<feBlend mode="normal" in="SourceGraphic" in2="effect2_dropShadow_88_82" result="shape"/>
</filter>
</defs>
</svg>
