<svg width="274" height="276" viewBox="0 0 274 276" fill="none" xmlns="http://www.w3.org/2000/svg">
<g filter="url(#filter0_dd_96_228)">
<circle cx="136.5" cy="135.5" r="116.5" fill="#EAE0D3"/>
</g>
<path d="M125.525 142.921L120.559 137.913C121.343 136.749 121.919 135.465 122.29 134.061C122.66 132.658 122.846 131.228 122.846 129.77C122.846 128.31 122.65 126.88 122.259 125.478C121.867 124.076 121.279 122.834 120.496 121.75L125.462 116.75C126.99 118.556 128.125 120.592 128.866 122.857C129.608 125.122 129.979 127.438 129.979 129.804C129.979 132.171 129.619 134.492 128.897 136.767C128.177 139.042 127.053 141.093 125.525 142.921ZM137.742 155.066L132.742 150.108C135.294 146.989 137.184 143.702 138.41 140.248C139.636 136.794 140.249 133.29 140.249 129.736C140.249 126.181 139.636 122.673 138.41 119.212C137.184 115.751 135.294 112.504 132.742 109.47L137.742 104.472C141.003 108.227 143.407 112.251 144.954 116.545C146.501 120.84 147.274 125.241 147.274 129.749C147.274 134.234 146.501 138.632 144.954 142.945C143.407 147.257 141.003 151.297 137.742 155.066ZM89.6973 133.959C86.6542 133.959 84.0688 132.893 81.9411 130.763C79.8135 128.632 78.7496 126.045 78.7496 123.002C78.7496 119.958 79.8151 117.364 81.946 115.219C84.0758 113.073 86.6623 112 89.7054 112C92.7485 112 95.343 113.075 97.4891 115.224C99.6352 117.373 100.708 119.968 100.708 123.011C100.708 126.054 99.6336 128.64 97.4843 130.767C95.336 132.895 92.7403 133.959 89.6973 133.959ZM66.125 159.584V157.95C66.125 155.874 66.7024 153.991 67.8573 152.302C69.011 150.613 70.5932 149.333 72.6039 148.462C75.257 147.305 78.0059 146.425 80.8508 145.821C83.6967 145.218 86.6547 144.916 89.7249 144.916C92.794 144.916 95.7466 145.218 98.5828 145.821C101.419 146.425 104.162 147.305 106.812 148.462C108.822 149.333 110.405 150.613 111.56 152.302C112.715 153.991 113.292 155.874 113.292 157.95V159.584H66.125ZM182.28 133.959C179.237 133.959 176.652 132.893 174.524 130.763C172.397 128.632 171.334 126.045 171.334 123.002C171.334 119.958 172.399 117.364 174.529 115.219C176.66 113.073 179.247 112 182.29 112C185.333 112 187.927 113.075 190.074 115.224C192.219 117.373 193.291 119.968 193.291 123.011C193.291 126.054 192.217 128.64 190.069 130.767C187.919 132.895 185.323 133.959 182.28 133.959ZM158.708 159.584V157.95C158.708 155.874 159.285 153.991 160.44 152.302C161.595 150.613 163.178 149.333 165.188 148.462C167.84 147.305 170.589 146.425 173.435 145.821C176.28 145.218 179.237 144.916 182.308 144.916C185.378 144.916 188.331 145.218 191.167 145.821C194.003 146.425 196.746 147.305 199.396 148.462C201.407 149.333 202.989 150.613 204.143 152.302C205.298 153.991 205.875 155.874 205.875 157.95V159.584H158.708Z" fill="#3E382F" fill-opacity="0.7"/>
<defs>
<filter id="filter0_dd_96_228" x="0.11758" y="0.337361" width="273.182" height="274.963" filterUnits="userSpaceOnUse" color-interpolation-filters="sRGB">
<feFlood flood-opacity="0" result="BackgroundImageFix"/>
<feColorMatrix in="SourceAlpha" type="matrix" values="0 0 0 0 0 0 0 0 0 0 0 0 0 0 0 0 0 0 127 0" result="hardAlpha"/>
<feOffset dx="-7.31868" dy="-6.0989"/>
<feGaussianBlur stdDeviation="6.28187"/>
<feComposite in2="hardAlpha" operator="out"/>
<feColorMatrix type="matrix" values="0 0 0 0 1 0 0 0 0 1 0 0 0 0 1 0 0 0 0.4 0"/>
<feBlend mode="normal" in2="BackgroundImageFix" result="effect1_dropShadow_96_228"/>
<feColorMatrix in="SourceAlpha" type="matrix" values="0 0 0 0 0 0 0 0 0 0 0 0 0 0 0 0 0 0 127 0" result="hardAlpha"/>
<feOffset dx="6" dy="9"/>
<feGaussianBlur stdDeviation="7.15"/>
<feComposite in2="hardAlpha" operator="out"/>
<feColorMatrix type="matrix" values="0 0 0 0 0 0 0 0 0 0 0 0 0 0 0 0 0 0 0.2 0"/>
<feBlend mode="normal" in2="effect1_dropShadow_96_228" result="effect2_dropShadow_96_228"/>
<feBlend mode="normal" in="SourceGraphic" in2="effect2_dropShadow_96_228" result="shape"/>
</filter>
</defs>
</svg>
