<svg width="274" height="276" viewBox="0 0 274 276" fill="none" xmlns="http://www.w3.org/2000/svg">
<g filter="url(#filter0_dd_96_223)">
<circle cx="136.5" cy="135.5" r="116.5" fill="#EAE0D3"/>
</g>
<path d="M108.235 188.922C105.811 188.922 103.704 188.028 101.914 186.238C100.124 184.449 99.2296 182.343 99.2296 179.919V163.748H120.289V140.814C115.717 141.448 111.114 141.059 106.48 139.646C101.848 138.232 97.8662 135.871 94.5337 132.564V122.365H84.9429L63.2314 100.607C67.4395 96.6968 72.3516 93.6336 77.9679 91.4179C83.5854 89.2022 89.3253 88.0944 95.1876 88.0944C99.2738 88.0944 103.535 88.6976 107.971 89.904C112.406 91.1104 116.512 93.0442 120.289 95.7054V82.5259H196.917V172.292C196.917 176.944 195.308 180.879 192.09 184.097C188.873 187.314 184.954 188.922 180.333 188.922H108.235ZM129.292 163.748H172.706V172.292C172.706 174.5 173.425 176.324 174.863 177.762C176.301 179.2 178.124 179.919 180.333 179.919C182.51 179.919 184.318 179.2 185.756 177.762C187.193 176.324 187.912 174.5 187.912 172.292V91.529H129.292V102.299L170.574 143.581V149.993H164.161L141.981 127.859L138.438 131.621C136.985 133.205 135.527 134.481 134.065 135.448C132.604 136.417 131.013 137.284 129.292 138.05V163.748ZM88.9114 113.36H103.539V128.301C105.722 129.709 107.837 130.715 109.883 131.318C111.929 131.922 113.955 132.223 115.962 132.223C119.064 132.223 122.057 131.539 124.94 130.17C127.823 128.801 130.209 127.125 132.096 125.141L135.568 121.446L123.156 109.034C119.329 105.178 115.037 102.225 110.282 100.174C105.526 98.1229 100.495 97.0975 95.1876 97.0975C91.842 97.0975 88.6862 97.5233 85.7204 98.375C82.7546 99.2266 79.9441 100.332 77.2889 101.691L88.9114 113.36ZM163.703 172.752H108.235V179.919H166.009C165.273 179.067 164.705 178.017 164.305 176.768C163.903 175.518 163.703 174.18 163.703 172.752Z" fill="#3E382F" fill-opacity="0.7"/>
<defs>
<filter id="filter0_dd_96_223" x="0.11758" y="0.337361" width="273.182" height="274.963" filterUnits="userSpaceOnUse" color-interpolation-filters="sRGB">
<feFlood flood-opacity="0" result="BackgroundImageFix"/>
<feColorMatrix in="SourceAlpha" type="matrix" values="0 0 0 0 0 0 0 0 0 0 0 0 0 0 0 0 0 0 127 0" result="hardAlpha"/>
<feOffset dx="-7.31868" dy="-6.0989"/>
<feGaussianBlur stdDeviation="6.28187"/>
<feComposite in2="hardAlpha" operator="out"/>
<feColorMatrix type="matrix" values="0 0 0 0 1 0 0 0 0 1 0 0 0 0 1 0 0 0 0.4 0"/>
<feBlend mode="normal" in2="BackgroundImageFix" result="effect1_dropShadow_96_223"/>
<feColorMatrix in="SourceAlpha" type="matrix" values="0 0 0 0 0 0 0 0 0 0 0 0 0 0 0 0 0 0 127 0" result="hardAlpha"/>
<feOffset dx="6" dy="9"/>
<feGaussianBlur stdDeviation="7.15"/>
<feComposite in2="hardAlpha" operator="out"/>
<feColorMatrix type="matrix" values="0 0 0 0 0 0 0 0 0 0 0 0 0 0 0 0 0 0 0.2 0"/>
<feBlend mode="normal" in2="effect1_dropShadow_96_223" result="effect2_dropShadow_96_223"/>
<feBlend mode="normal" in="SourceGraphic" in2="effect2_dropShadow_96_223" result="shape"/>
</filter>
</defs>
</svg>
