<svg width="38" height="19" viewBox="0 0 38 19" fill="none" xmlns="http://www.w3.org/2000/svg">
<path d="M16.9805 18.154H9.077C6.56567 18.154 4.425 17.269 2.655 15.499C0.885 13.7293 0 11.589 0 9.078C0 6.567 0.885 4.42633 2.655 2.656C4.425 0.885333 6.56567 0 9.077 0H16.9805V2.2695H9.077C7.18367 2.2695 5.57567 2.92967 4.253 4.25C2.93067 5.57033 2.2695 7.17533 2.2695 9.065C2.2695 10.955 2.93067 12.5642 4.253 13.8925C5.57567 15.2205 7.18367 15.8845 9.077 15.8845H16.9805V18.154ZM11.6925 10.2115V7.9425H26.327V10.2115H11.6925ZM21.0195 18.154V15.8845H28.923C30.8163 15.8845 32.4243 15.2243 33.747 13.904C35.0693 12.5837 35.7305 10.9787 35.7305 9.089C35.7305 7.199 35.0693 5.58983 33.747 4.2615C32.4243 2.9335 30.8163 2.2695 28.923 2.2695H21.0195V0H28.923C31.4343 0 33.575 0.884999 35.345 2.655C37.115 4.42467 38 6.565 38 9.076C38 11.587 37.115 13.7277 35.345 15.498C33.575 17.2687 31.4343 18.154 28.923 18.154H21.0195Z" fill="#212529" fill-opacity="0.74902"/>
</svg>
