<svg width="274" height="276" viewBox="0 0 274 276" fill="none" xmlns="http://www.w3.org/2000/svg">
<g filter="url(#filter0_dd_96_212)">
<circle cx="136.5" cy="135.5" r="116.5" fill="#EAE0D3"/>
</g>
<path d="M106.015 166.355H185.317C185.811 166.355 186.264 166.15 186.676 165.738C187.086 165.327 187.292 164.875 187.292 164.381V94.3733H104.04V164.381C104.04 164.875 104.246 165.327 104.656 165.738C105.068 166.15 105.521 166.355 106.015 166.355ZM106.015 174.418C103.257 174.418 100.894 173.435 98.9277 171.468C96.961 169.501 95.9777 167.139 95.9777 164.381V85.0788C95.9777 82.3207 96.961 79.9583 98.9277 77.9916C100.894 76.0249 103.257 75.0415 106.015 75.0415H185.317C188.075 75.0415 190.437 76.0249 192.404 77.9916C194.371 79.9583 195.354 82.3207 195.354 85.0788V164.381C195.354 167.139 194.371 169.501 192.404 171.468C190.437 173.435 188.075 174.418 185.317 174.418H106.015ZM86.6831 193.75C83.925 193.75 81.5626 192.766 79.5959 190.8C77.6292 188.833 76.6459 186.471 76.6459 183.713V96.348H84.7084V183.713C84.7084 184.207 84.9137 184.66 85.3244 185.071C85.7362 185.482 86.1891 185.687 86.6831 185.687H174.048V193.75H86.6831Z" fill="#3E382F" fill-opacity="0.7"/>
<defs>
<filter id="filter0_dd_96_212" x="0.11758" y="0.337361" width="273.182" height="274.963" filterUnits="userSpaceOnUse" color-interpolation-filters="sRGB">
<feFlood flood-opacity="0" result="BackgroundImageFix"/>
<feColorMatrix in="SourceAlpha" type="matrix" values="0 0 0 0 0 0 0 0 0 0 0 0 0 0 0 0 0 0 127 0" result="hardAlpha"/>
<feOffset dx="-7.31868" dy="-6.0989"/>
<feGaussianBlur stdDeviation="6.28187"/>
<feComposite in2="hardAlpha" operator="out"/>
<feColorMatrix type="matrix" values="0 0 0 0 1 0 0 0 0 1 0 0 0 0 1 0 0 0 0.4 0"/>
<feBlend mode="normal" in2="BackgroundImageFix" result="effect1_dropShadow_96_212"/>
<feColorMatrix in="SourceAlpha" type="matrix" values="0 0 0 0 0 0 0 0 0 0 0 0 0 0 0 0 0 0 127 0" result="hardAlpha"/>
<feOffset dx="6" dy="9"/>
<feGaussianBlur stdDeviation="7.15"/>
<feComposite in2="hardAlpha" operator="out"/>
<feColorMatrix type="matrix" values="0 0 0 0 0 0 0 0 0 0 0 0 0 0 0 0 0 0 0.2 0"/>
<feBlend mode="normal" in2="effect1_dropShadow_96_212" result="effect2_dropShadow_96_212"/>
<feBlend mode="normal" in="SourceGraphic" in2="effect2_dropShadow_96_212" result="shape"/>
</filter>
</defs>
</svg>
